<svg xmlns="http://www.w3.org/2000/svg" width="575" height="403"><g fill="none" fill-rule="nonzero"><path fill="#2f2e41" d="M 26.454 381.871 C 33.943 395.954 49.837 402 49.837 402 s 3.752 -16.788 -3.737 -30.871 C 38.612 357.046 22.717 351 22.717 351 s -3.752 16.788 3.737 30.871 Z" /><path fill="#ec7064" d="M 31.035 377.598 c 13.531 7.998 18.742 23.882 18.742 23.882 S 33.05 404.4 19.52 396.402 C 5.99 388.404 0.777 372.52 0.777 372.52 s 16.727 -2.92 30.258 5.078 Z" /><path fill="#3f3d56" d="M 16.777 402 h 558 v 1 h -558 Z" /><path fill="#ec7064" d="M 455.503 38.515 V 84.75 h -9.263 V 38.515 Z M 417.423 0.5 v 46.235 h -9.263 V 0.5 Z" /><path fill="#3f3d56" d="M 349.496 86.805 v 22.604 h -9.263 V 86.805 Z M 349.496 166.945 v 22.604 h -9.263 v -22.604 Z M 349.496 209.07 v 22.604 h -9.263 V 209.07 Z M 280.54 189.549 v 22.604 h -9.263 v -22.604 Z M 280.54 272.771 v 22.604 h -9.263 v -22.604 Z M 349.496 251.195 v 22.604 h -9.263 v -22.604 Z M 349.496 294.348 v 22.604 h -9.263 v -22.604 Z M 398.898 337.5 V 60.091 h 40.138 v 0.608 H 399.52 V 337.5 Z" /><path fill="#3f3d56" d="M 327.883 316.951 V 138.177 h 71.015 v 0.605 h -70.4 v 178.17 Z M 398.897 98.107 v 1.027 h -40.139 v -1.027 Z" /><path fill="#3f3d56" d="M 398.897 177.22 v 1.027 h -40.139 v -1.027 Z M 398.897 221.399 v 1.027 h -40.139 v -1.027 Z M 398.897 262.497 v 1.027 h -40.139 v -1.027 Z M 398.897 304.622 v 1.027 h -40.139 v -1.027 Z M 329.941 199.823 v 1.027 h -40.139 v -1.027 Z M 329.941 284.073 v 1.027 h -40.139 v -1.027 Z" /><path fill="#ec7064" d="M 377.284 38.515 V 84.75 h -9.263 V 38.515 Z" /><path fill="#3f3d56" d="M 484.321 86.805 v 22.604 h -9.263 V 86.805 Z M 484.321 166.945 v 22.604 h -9.263 v -22.604 Z M 484.321 209.07 v 22.604 h -9.263 V 209.07 Z M 553.277 189.549 v 22.604 h -9.263 v -22.604 Z M 553.277 272.771 v 22.604 h -9.263 v -22.604 Z M 484.321 251.195 v 22.604 h -9.263 v -22.604 Z M 484.321 294.348 v 22.604 h -9.263 v -22.604 Z M 427.715 337.5 V 60.091 h -40.139 v 0.608 h 39.517 V 337.5 Z" /><path fill="#3f3d56" d="M 496.671 316.951 V 138.177 h -71.014 v 0.605 h 70.4 v 178.17 Z M 463.737 98.107 v 1.027 h -40.139 v -1.027 Z" /><path fill="#3f3d56" d="M 463.737 177.22 v 1.027 h -40.139 v -1.027 Z M 463.737 221.399 v 1.027 h -40.139 v -1.027 Z M 463.737 262.497 v 1.027 h -40.139 v -1.027 Z M 463.737 304.622 v 1.027 h -40.139 v -1.027 Z M 534.751 199.823 v 1.027 h -40.139 v -1.027 Z M 534.751 284.073 v 1.027 h -40.139 v -1.027 Z" /><path fill="#2f2e41" d="M 184.538 25.073 c -7.356 -12.446 -21.909 -13.026 -21.909 -13.026 s -14.18 -1.816 -23.278 17.14 c -8.479 17.667 -20.181 34.726 -1.884 38.861 l 3.305 -10.3 l 2.047 11.067 c 2.605 0.188 5.219 0.233 7.829 0.134 c 19.595 -0.633 38.256 0.186 37.656 -6.855 c -0.8 -9.36 3.312 -25.046 -3.766 -37.021 Z" /><path fill="#9d5f68" d="M 157.634 67.638 c 0.035 1.39 0.024 2.854 -0.663 4.06 c -1.363 2.391 -4.69 2.749 -6.692 4.633 c -2.105 1.982 -2.343 5.198 -2.443 8.094 c -0.105 3.027 -0.194 6.153 0.906 8.973 a 21.836 21.836 0 0 0 2.539 4.379 a 501.578 501.578 0 0 0 3.7 5.281 c 0.664 0.987 1.405 1.92 2.215 2.792 c 2.228 2.28 5.286 3.541 8.338 4.441 c 1.972 0.582 4.102 1.035 6.059 0.403 a 11.591 11.591 0 0 0 3.523 -2.175 a 18.914 18.914 0 0 0 3.988 -3.881 c 1.643 -2.393 2.098 -5.39 2.439 -8.276 a 179.304 179.304 0 0 0 1.172 -25.727 a 6.328 6.328 0 0 0 -0.49 -2.733 c -1.013 -1.987 -3.727 -2.411 -5.157 -4.12 c -1.223 -1.462 -1.273 -3.547 -1.262 -5.455 l 0.026 -4.86 c 0.043 -0.409 -0.04 -0.821 -0.235 -1.183 a 1.994 1.994 0 0 0 -1.388 -0.65 a 46.608 46.608 0 0 0 -9.104 -0.612 c -2.47 0.076 -7.21 -0.131 -9.347 1.25 c -1.94 1.254 0.489 4.718 0.938 6.663 c 0.604 2.862 0.918 5.778 0.938 8.703 Z" /><path fill="#2f2e41" d="M 118.296 392.373 c -0.612 2.107 -0.896 4.563 0.375 6.343 a 6.333 6.333 0 0 0 2.678 1.986 c 2.652 1.168 5.62 1.399 8.51 1.263 a 3.991 3.991 0 0 0 3.01 -1.17 c 6.715 -5.628 11.257 -13.471 12.828 -22.152 a 2.124 2.124 0 0 0 -0.068 -1.36 a 2.135 2.135 0 0 0 -0.894 -0.767 a 19.975 19.975 0 0 0 -4.79 -2.215 c -9.227 -2.41 -19.363 10.199 -21.65 18.072 Z M 216.482 362.95 a 13.83 13.83 0 0 0 4.568 3.46 a 6.445 6.445 0 0 0 5.583 -0.094 c 2.585 -1.464 3.318 -4.865 3.111 -7.817 c -0.381 -5.458 -3.003 -10.378 -6.016 -14.837 c -0.954 -1.41 -3.064 -5.61 -4.916 -5.662 c -0.88 -0.025 -4.17 3.148 -5.065 3.752 c -3.266 2.206 -5.529 3.784 -4.849 8.02 c 0.758 4.723 4.388 9.777 7.584 13.178 Z" /><circle fill="#9d5f68" cx="162.777" cy="40" r="20" /><path fill="#fe5043" d="M 155.955 87.713 a 29.791 29.791 0 0 1 -3.052 -6.1 a 10.18 10.18 0 0 1 -0.053 -6.737 c -2.114 -1.263 -4.984 -0.24 -6.524 1.714 s -2.01 4.574 -2.147 7.086 c -0.135 2.512 0.009 5.062 -0.522 7.518 c -1.176 5.434 -5.536 9.901 -5.86 15.458 c -0.32 5.467 3.323 10.23 5.114 15.386 a 26.357 26.357 0 0 1 1.335 10.015 c -0.058 1.097 -0.125 2.346 0.627 3.126 c 0.39 0.351 0.854 0.608 1.354 0.75 c 8.645 3.132 17.983 3.403 27.144 3.641 l 15.132 0.395 a 4.702 4.702 0 0 0 2.672 -0.46 c 1.358 -0.857 1.54 -2.778 1.563 -4.417 c 0.198 -14.117 -0.385 -28.232 -0.968 -42.338 c -0.212 -5.113 -0.427 -10.255 -1.48 -15.256 c -0.268 -1.274 -0.708 -2.69 -1.85 -3.252 c -0.966 -0.476 -2.113 -0.168 -3.118 0.215 c -4.69 1.795 -8.744 5.007 -11.63 9.215 c -3.105 4.55 -4.632 10.006 -7.67 14.59 c -2.206 3.326 -3.481 0.427 -4.95 -2.023 l -5.117 -8.526 Z" /><path fill="#575a88" d="M 150.098 69.198 c -1.19 0.575 -2.532 0.825 -3.663 1.502 c -1.355 0.811 -2.276 2.152 -3.154 3.45 l -4.736 7.008 a 21.62 21.62 0 0 0 -2.715 4.875 c -0.74 2.126 -0.79 4.414 -0.859 6.659 a 289.287 289.287 0 0 1 -1.183 18.706 a 66.181 66.181 0 0 1 -1.316 8.928 c -0.564 2.387 -1.362 4.713 -2.159 7.036 l -8.775 25.586 a 9.529 9.529 0 0 0 -0.756 4.03 c 0.145 1.369 1.067 2.761 2.445 3.005 a 4.864 4.864 0 0 0 2.635 -0.524 c 3.35 -1.376 6.675 -3.005 9.255 -5.517 c 4.24 -4.13 5.945 -10.085 7.488 -15.755 c 0.818 -3.008 1.643 -6.058 1.64 -9.172 c -0.008 -7.069 -4.252 -13.616 -4.365 -20.684 c 0.02 -1.92 0.196 -3.836 0.526 -5.73 c 0.756 -5.147 1.541 -10.334 3.354 -15.22 c 1.813 -4.885 4.749 -9.509 9.066 -12.512 c 2.07 -1.44 7.627 -4.323 5.457 -7.633 c -2.163 -3.3 -6.07 0.94 -8.185 1.962 Z" /><path fill="#2f2e41" d="M 188.057 133.742 a 1652.24 1652.24 0 0 0 -42.63 -2.72 c -1.195 -0.06 -2.555 -0.058 -3.375 0.805 a 4.11 4.11 0 0 0 -0.773 1.44 l -3.038 8.112 c -1.346 3.593 -1.96 6.986 -4.646 9.744 c -2.687 2.76 -5.884 4.997 -8.537 7.788 a 28.612 28.612 0 0 0 -7.475 15.101 c -0.74 4.644 -0.319 9.457 -1.53 14.002 c -1.495 5.603 0.902 11.436 0.865 17.23 c -0.056 8.63 -1.252 17.207 -2.445 25.756 c -3.46 24.784 -6.92 49.568 -10.68 74.31 c -3.085 20.313 -6.124 42.24 3.512 60.432 c 2.303 4.348 5.44 8.477 9.845 10.732 a 30.076 30.076 0 0 0 7.68 2.387 a 178.208 178.208 0 0 0 20.67 3.031 c 2.818 0.246 6.1 0.242 7.907 -1.912 c 1.212 -1.445 1.382 -3.458 1.498 -5.333 l 0.76 -12.243 c 0.982 -15.842 0.621 -32.267 -2.949 -47.74 c -1.204 -5.218 -2.718 -10.366 -3.725 -15.624 a 82.942 82.942 0 0 1 -1.48 -15.148 a 47.821 47.821 0 0 1 1.009 -10.853 c 2.612 -11.506 11.265 -21.881 10.007 -33.608 c 7.973 11.578 10.616 24.833 13.111 38.627 c 1.82 10.062 3.789 20.145 7.235 29.78 c 3.746 10.476 9.308 20.877 8.516 31.961 a 41.43 41.43 0 0 1 -1.158 6.848 c -2.265 9.304 7.308 17.26 16.135 13.36 l 0.18 -0.082 c 8.159 -3.72 12.28 -13.517 20.6 -16.864 c 3.863 -1.554 8.677 -1.773 10.242 -6.47 a 8.167 8.167 0 0 0 0.343 -3.362 c -0.366 -3.799 -2.553 -6.872 -4.255 -10.137 c -3.712 -7.123 -5.12 -15.169 -6.454 -23.074 a 3863.91 3863.91 0 0 1 -3.907 -23.575 c -0.835 -5.14 -1.668 -10.311 -3.374 -15.235 c -0.748 -2.156 -1.66 -4.259 -2.259 -6.46 c -2.237 -8.22 0.077 -16.98 -0.858 -25.444 c -1.052 -9.521 -2.984 -18.976 -5.1 -28.322 c -2.739 -12.106 -3.298 -24.58 -3.739 -36.979 c -0.174 -4.925 -0.357 -9.97 -2.231 -14.536 c -2.645 -6.439 -7.862 -11.58 -13.497 -15.725 Z M 181.075 24.452 L 166.338 17 l -20.35 3.048 L 141.778 38 l 10.48 -0.39 l 2.929 -6.595 v 6.487 l 4.835 -0.18 l 2.808 -10.5 L 164.584 38 l 17.193 -0.339 Z" /><path fill="#575a88" d="M 173.801 77.756 a 8.005 8.005 0 0 1 4.2 -2.085 a 2.166 2.166 0 0 0 1.482 -0.597 c 0.196 -0.332 0.284 -0.717 0.252 -1.1 a 53.577 53.577 0 0 0 -0.861 -10.374 a 10.42 10.42 0 0 1 4.223 -0.574 l 13.275 0.037 c 2.67 0.008 5.433 0.035 7.862 1.143 a 12.51 12.51 0 0 1 5.68 5.818 a 33.594 33.594 0 0 1 2.567 7.856 c 1.578 6.816 -4.086 13.676 -4.592 20.654 c -0.146 2.012 0.023 4.04 -0.162 6.049 c -0.195 2.116 -0.78 4.19 -0.828 6.315 c -0.06 2.626 0.705 5.199 1.587 7.673 c 2.694 7.56 6.53 14.657 9.643 22.055 a 18.42 18.42 0 0 1 1.588 5.334 a 6.892 6.892 0 0 1 -1.464 5.23 c -1.298 1.456 -3.274 2.051 -5.097 2.747 a 33.357 33.357 0 0 0 -6.519 3.35 a 13.711 13.711 0 0 1 -2.656 1.54 c -0.922 0.29 -1.867 0.499 -2.825 0.626 c -2.459 0.468 -4.782 1.46 -7.158 2.248 c -0.784 0.26 -1.688 0.487 -2.396 0.063 a 2.888 2.888 0 0 1 -0.926 -1.102 c -4.555 -7.892 -6.163 -17.115 -7.208 -26.168 c -1.044 -9.053 -1.62 -18.253 -4.39 -26.935 c -0.842 -2.64 -1.887 -5.23 -2.365 -7.96 c -0.692 -3.946 -0.174 -8.03 -0.886 -11.972 c -0.632 -3.495 -2.267 -6.328 -2.026 -9.87 Z" /><path fill="#9d5f68" d="M 204.546 153.464 c -3.897 1.78 -6.98 4.61 -9.588 7.898 c -0.552 0.696 0.188 1.994 1.843 1.973 c 1.54 -0.02 2.46 -1.905 4 -1.925 c 0.47 3.93 1.323 7.81 2.545 11.59 c 3.072 -2.576 4.912 -6.203 6.672 -9.726 l 3.479 -6.966 c 1.277 -2.558 2.555 -5.116 3.706 -7.727 c 0.313 -0.61 0.506 -1.27 0.57 -1.948 c 0.152 -4.494 -4.487 -4.52 -6.488 -1.709 c -2.189 3.076 -2.87 6.773 -6.739 8.54 Z" /><path fill="#575a88" d="M 205.064 72 c 2.858 3.104 5.736 6.234 7.955 9.864 c 2.219 3.63 3.76 7.84 3.657 12.146 c -0.11 1.09 -0.072 2.191 0.113 3.27 a 9.461 9.461 0 0 0 1.424 2.754 A 53.485 53.485 0 0 1 224.662 114 c 0.24 0.98 0.594 1.924 1.055 2.813 c 0.422 0.722 0.998 1.331 1.463 2.024 a 8.053 8.053 0 0 1 0.127 8.503 a 2.9 2.9 0 0 0 -0.503 1.037 c -0.192 1.186 1.233 1.9 1.757 2.972 c 0.531 1.086 0.023 2.474 -0.858 3.275 a 7.797 7.797 0 0 1 -3.17 1.48 c 1.474 2.206 -0.315 5.306 -0.915 7.922 c -0.42 1.83 -0.414 3.736 -0.69 5.597 c -0.274 1.86 -0.892 3.773 -2.263 4.994 c -0.175 0.175 -0.39 0.3 -0.624 0.365 c -0.76 0.155 -1.278 -0.765 -1.544 -1.525 c -0.83 -2.368 -1.666 -4.782 -3.128 -6.789 c -1.461 -2.006 -3.677 -3.577 -6.09 -3.57 a 3.53 3.53 0 0 1 0.237 -3.098 c 0.483 -0.953 1.192 -1.76 1.725 -2.684 a 12.725 12.725 0 0 0 1.358 -4.054 c 1.191 -6.542 -0.008 -13.313 -3.361 -18.975 a 18.058 18.058 0 0 0 -2.805 -3.664 c -1.178 -1.154 -2.556 -2.081 -3.644 -3.328 a 13.33 13.33 0 0 1 -2.9 -7.353 c -0.2 -2.69 -0.132 -5.393 0.205 -8.067 a 359.022 359.022 0 0 1 1.843 -15.9 c 0.056 -0.687 0.226 -1.359 0.504 -1.985 c 0.569 -1.11 1.532 -1.455 2.623 -1.991 Z" /></g></svg>