<svg xmlns="http://www.w3.org/2000/svg" width="656" height="385"><defs><linearGradient id="prefix__a" x1="50%" y1="100%" x2="50%" y2="0%"><stop stop-color="gray" stop-opacity="0.25" offset="0%" /><stop stop-color="gray" stop-opacity="0.12" offset="53.514%" /><stop stop-color="gray" stop-opacity="0.1" offset="100%" /></linearGradient></defs><g fill="none" fill-rule="nonzero"><path fill="#f2f2f2" d="M 101 122 v 19.161 c 17.433 0 31.565 13.583 31.565 30.339 S 118.433 201.839 101 201.839 V 221 h 103 v -99 H 101 Z" /><ellipse fill="#f2f2f2" cx="100.5" cy="171" rx="24.5" ry="24" /><path fill="#f2f2f2" d="M 478 195.053 L 438 171 v 186 h 40 Z M 376 357 h 40 V 157.172 L 376 133 Z M 354 120.597 L 153 0 v 108.815 h 64.43 v 125.433 H 153 V 357 h 201 Z M 499 208 v 150 h 21.021 L 577 254.74 Z" /><path fill="#3f3d56" d="M 577.835 286.085 C 544.42 310.303 535 352.85 535 352.85 s 44.752 3.282 78.166 -20.936 C 646.579 307.697 656 265.15 656 265.15 s -44.752 -3.282 -78.165 20.936 Z" /><path fill="#ec7064" d="M 533.845 353 s -0.492 -0.265 -1.382 -0.794 c -0.71 -0.422 -1.683 -1.01 -2.86 -1.762 c -10.527 -6.707 -37.794 -26.433 -48.978 -56.87 c -13.993 -38.108 2.53 -78.574 2.53 -78.574 s 36.043 19.593 51.354 54.787 a 81.233 81.233 0 0 1 1.866 4.639 c 12.176 33.157 1.248 68.1 -1.795 76.617 c -0.458 1.275 -0.735 1.957 -0.735 1.957 Z" /><path fill="#3f3d56" d="M 534.575 352 l -0.508 -0.36 c -0.364 -0.254 -36.425 -26.031 -45.69 -65.102 c -9.267 -39.07 11.54 -77.614 11.751 -77.998 l 0.297 -0.54 l 0.508 0.36 c 0.364 0.254 36.425 26.031 45.69 65.102 c 9.267 39.07 -11.54 77.614 -11.751 77.998 l -0.297 0.54 Z m -33.771 -142.401 c -2.501 4.854 -19.927 40.571 -11.359 76.7 c 8.568 36.128 40.317 60.804 44.751 64.102 c 2.501 -4.854 19.927 -40.571 11.359 -76.7 c -8.568 -36.128 -40.317 -60.804 -44.751 -64.102 Z" /><path opacity="0.1" fill="#000" d="M 536.323 350.797 c -0.845 0.463 -1.583 0.852 -2.19 1.17 a 68.3 68.3 0 0 1 -2.076 1.033 s -0.35 -0.992 -0.883 -2.806 c -2.934 -9.928 -11.334 -44.528 2.724 -76.307 A 87.838 87.838 0 0 1 536.25 269 a 80.503 80.503 0 0 1 1.93 4.67 c 12.597 33.378 1.291 68.553 -1.857 77.127 Z" /><path fill="#fe5043" d="M 592.356 297.47 c -16.09 37.279 -56.491 56.53 -56.491 56.53 s -14.312 -41.19 1.779 -78.47 c 16.09 -37.279 56.491 -56.53 56.491 -56.53 s 14.312 41.19 -1.779 78.47 Z" /><path fill="#3f3d56" d="M 535.114 352.595 l 57.347 -132.863 l 1.017 0.414 l -57.347 132.864 Z" /><path fill="#3f3d56" d="M 650 364.5 c 0 5.118 -29.737 9.8 -78.9 13.393 a 1839.81 1839.81 0 0 1 -28.68 1.846 c -8.782 0.5 -17.984 0.969 -27.605 1.409 c -9.325 0.419 -19.006 0.808 -29.043 1.168 c -31.706 1.141 -66.751 1.962 -103.984 2.372 c -9.034 0.098 -18.19 0.175 -27.47 0.232 c -9.661 0.053 -19.434 0.08 -29.318 0.08 c -179.494 0 -325 -9.175 -325 -20.5 S 145.506 344 325 344 c 77.273 0 148.241 1.703 204.017 4.539 c 2.053 0.107 4.086 0.21 6.097 0.312 c 0.012 0.007 0.026 0.01 0.04 0.009 C 605.412 352.623 650 358.23 650 364.5 Z" /><path opacity="0.15" fill="#000" d="M 650 364.5 c 0 5.118 -29.737 9.8 -78.9 13.393 a 1839.81 1839.81 0 0 1 -28.68 1.846 c -8.782 0.5 -17.984 0.969 -27.605 1.409 c -9.325 0.419 -19.006 0.808 -29.043 1.168 c -31.706 1.141 -66.751 1.962 -103.984 2.372 c -9.034 0.098 -18.19 0.175 -27.47 0.232 c -9.661 0.053 -19.434 0.08 -29.318 0.08 c -179.494 0 -325 -9.175 -325 -20.5 S 145.506 344 325 344 c 77.273 0 148.241 1.703 204.017 4.539 c 2.053 0.107 4.086 0.21 6.097 0.312 c 0.012 0.007 0.026 0.01 0.04 0.009 C 605.412 352.623 650 358.23 650 364.5 Z" /><path fill="#3f3d56" d="M 626 360.5 c 0 4.12 -27.723 7.887 -73.56 10.78 c -8.33 0.522 -17.267 1.016 -26.734 1.484 c -8.187 0.4 -16.766 0.777 -25.736 1.132 c -8.695 0.342 -17.72 0.656 -27.078 0.941 c -29.561 0.921 -62.237 1.579 -96.949 1.91 c -8.418 0.08 -16.955 0.14 -25.609 0.185 c -9.01 0.047 -18.12 0.07 -27.331 0.068 C 155.658 377 20 369.613 20 360.5 S 155.658 344 323.003 344 c 37.003 0 72.455 0.363 105.235 1.026 h 0.083 c 31.002 0.626 59.614 1.52 84.887 2.63 c 1.915 0.085 3.81 0.167 5.686 0.248 c 0.01 0.008 0.024 0.012 0.038 0.01 c 11.576 0.537 22.407 1.116 32.388 1.737 c 0.11 0.005 0.221 0.016 0.331 0.02 c 46.311 2.9 74.349 6.683 74.349 10.829 Z" /><path opacity="0.1" fill="#000" d="M 549 350.646 c -4.102 25.532 -29.965 16.975 -61.26 16.975 c -33.062 0 -60.056 9.55 -61.74 -21.621 c 31.003 0.629 59.615 1.527 84.887 2.643 l 5.686 0.248 c 0.011 0.008 0.025 0.012 0.039 0.01 c 11.576 0.54 22.407 1.121 32.388 1.745 Z" /><path fill="#ec7064" d="M 175 342.96 c 0 9.665 -5.82 13.04 -13 13.04 a 23.201 23.201 0 0 1 -1.486 -0.05 c -6.48 -0.453 -11.514 -4.001 -11.514 -12.99 c 0 -9.3 12.04 -21.038 12.946 -21.908 l 0.001 -0.001 L 162 321 s 13 12.296 13 21.96 Z" /><path fill="#3f3d56" d="M 162.274 354.527 l 4.799 -6.559 l -4.812 7.28 l -0.012 0.752 a 21.212 21.212 0 0 1 -0.997 -0.045 l 0.517 -9.67 l -0.004 -0.076 l 0.009 -0.013 l 0.05 -0.914 l -4.824 -7.298 l 4.838 6.612 l 0.012 0.194 l 0.39 -7.307 l -4.129 -7.54 l 4.18 6.259 l 0.406 -15.15 l 0.002 -0.052 v 0.05 l -0.068 11.947 l 4.11 -4.736 l -4.127 5.765 l -0.109 6.542 l 3.84 -6.279 l -3.855 7.242 l -0.06 3.637 l 5.57 -8.74 l -5.592 10.009 l -0.134 8.09 Z M 428 335.384 C 428 299.826 455.534 271 489.5 271 s 61.5 28.826 61.5 64.384 c 0 35.559 -27.534 25.217 -61.5 25.217 S 428 370.943 428 335.384 Z M 83 294 h 1 v 72 h -1 Z" /><ellipse fill="#3f3d56" cx="84.5" cy="293" rx="10.5" ry="10" /><path fill="#3f3d56" d="M 83 338 s -1.488 -31.35 -32 -27.705" /><path fill="url(#prefix__a)" d="M 392.087 306.247 c 0.276 0.924 0.584 1.842 0.913 2.753 c -1.477 -1.374 -2.925 -2.786 -4.402 -4.152 c 0.592 0.175 1.183 0.35 1.741 0.557 c 0.61 0.229 1.194 0.51 1.748 0.842 Z m -7.152 -4.59 c -8.703 -7.164 -18.786 -12.711 -27.704 -19.657 c 4.87 2.268 9.607 4.912 14.306 7.447 a 448.823 448.823 0 0 0 16.92 8.669 a 13.391 13.391 0 0 1 -3.522 3.541 Z m 3.722 -18.04 l 0.417 -0.405 c 0.004 1.018 0.012 1.97 0.025 2.834 c -0.78 -0.245 -1.557 -0.496 -2.333 -0.754 c 0.667 -0.52 1.299 -1.08 1.891 -1.675 Z M 312 303.013 a 67.867 67.867 0 0 0 9.286 -12.543 c 3.455 5.715 9.07 9.836 13.845 14.622 c -7.694 -0.961 -15.4 -1.755 -23.131 -2.08 Z" /><path fill="#ec7064" d="M 65 356.96 c 0 9.665 -5.82 13.04 -13 13.04 a 23.201 23.201 0 0 1 -1.486 -0.05 C 44.034 369.496 39 365.948 39 356.96 c 0 -9.3 12.04 -21.038 12.946 -21.908 l 0.001 -0.001 L 52 335 s 13 12.296 13 21.96 Z" /><path fill="#3f3d56" d="M 50.274 368.527 l 4.799 -6.559 l -4.812 7.28 l -0.012 0.752 a 21.212 21.212 0 0 1 -0.997 -0.045 l 0.517 -9.67 l -0.004 -0.076 l 0.009 -0.013 l 0.05 -0.914 L 45 351.984 l 4.838 6.612 l 0.012 0.194 l 0.39 -7.307 l -4.129 -7.54 l 4.18 6.259 l 0.406 -15.15 l 0.002 -0.052 v 0.05 l -0.068 11.947 l 4.11 -4.736 l -4.127 5.765 l -0.109 6.542 l 3.84 -6.279 l -3.855 7.242 l -0.06 3.637 l 5.57 -8.74 l -5.592 10.009 l -0.134 8.09 Z" /><ellipse fill="#fe5043" cx="70.5" cy="277" rx="5.5" ry="5" /><path fill="#2f2e41" d="M 425.729 201.496 s 19.832 -4.444 22.018 13.263 c 2.187 17.708 -10.532 21.05 -10.532 21.05 L 429.16 238 L 398 229.7 l 4.373 -12.727 l 23.356 -15.477 Z" /><ellipse fill="#2f2e41" cx="418" cy="176" rx="27" ry="26" /><path fill="#2f2e41" d="M 325 230 l 5.227 1.074 L 348 257.926 L 340.16 259 Z" /><path fill="#fbbebe" d="M 191 339.474 A 113.378 113.378 0 0 0 196.3 354 a 124.475 124.475 0 0 0 17.693 -5.292 c 0.178 -0.068 -3.309 -4.855 -3.675 -5.247 c -1.382 -1.475 -3.17 -3.2 -4.997 -4.034 c -1.842 -0.84 -4.11 -0.199 -6.082 -0.093 c -2.743 0.147 -5.49 0.193 -8.239 0.14 Z" /><path fill="#2f2e41" d="M 205.125 347.082 c -3.07 -0.938 -4.934 -3.955 -6.183 -6.865 c -1.248 -2.91 -2.255 -6.082 -4.623 -8.217 c -0.907 0.042 -1.638 0.763 -2.087 1.538 c -0.449 0.776 -0.716 1.65 -1.235 2.382 c -0.987 1.394 -2.723 2.068 -3.964 3.25 c -1.302 1.24 -2.013 2.992 -3.36 4.183 c -1.693 1.496 -4.085 1.868 -6.305 2.363 a 41.042 41.042 0 0 0 -9.867 3.573 a 16.765 16.765 0 0 1 -3.655 1.6 a 14.047 14.047 0 0 1 -4.274 0.14 l -9.817 -0.684 a 7.848 7.848 0 0 0 -2.62 0.112 c -2.018 0.554 -3.271 2.754 -3.123 4.807 c 0.148 2.053 1.455 3.893 3.106 5.16 a 20.867 20.867 0 0 0 5.591 2.767 a 168.7 168.7 0 0 0 26.32 7.345 l 0.006 1.898 a 46.345 46.345 0 0 0 20.036 4.557 a 3.182 3.182 0 0 0 1.5 -0.253 c 0.689 -0.366 1.008 -1.152 1.263 -1.88 a 74.536 74.536 0 0 0 4.094 -20.847 c 0.174 -1.8 0.031 -3.617 -0.423 -5.37 c -0.534 -1.726 1.307 -1 -0.397 -1.677" /><path fill="#2f2e41" d="M 395.385 311.56 c -29.28 1.702 -58.221 -6.62 -87.54 -7.51 c -3.644 -0.11 -7.33 -0.102 -10.888 0.675 c -3.765 0.82 -7.275 2.475 -10.776 4.056 c -15.724 7.103 -31.991 12.987 -48.239 18.862 l -18.663 6.75 c -3.73 1.348 -7.595 2.718 -11.565 2.482 c -1.78 -0.105 -3.964 -0.367 -4.965 1.073 c -3.036 4.368 -1.602 10.784 0.404 15.686 c 0.652 1.59 1.753 3.307 3.498 3.488 c 1.229 0.128 2.371 -0.563 3.565 -0.873 c 3.397 -0.884 6.784 1.335 10.28 1.696 c 4.32 0.447 8.33 -1.942 12.408 -3.405 c 6.761 -2.427 14.155 -2.35 21.262 -3.5 c 11.917 -1.927 22.962 -7.3 33.287 -13.42 c 3.932 -2.331 7.91 -4.828 12.427 -5.68 c 5.193 -0.98 10.527 0.318 15.618 1.717 a 368.205 368.205 0 0 1 35.808 11.838 c 6.168 2.397 12.291 4.967 18.709 6.624 a 69.554 69.554 0 0 0 41.93 -2.373 c 4.686 -1.799 9.779 -4.978 10.048 -9.887 c 0.153 -2.8 -2.083 -5.265 -3.577 -7.659 c -0.958 -1.535 -1.917 -3.07 -2.96 -4.552 c -5.05 -7.167 -11.177 -16.606 -20.071 -16.089 Z" /><path opacity="0.1" fill="#000" d="M 395.385 311.56 c -29.28 1.702 -58.221 -6.62 -87.54 -7.51 c -3.644 -0.11 -7.33 -0.102 -10.888 0.675 c -3.765 0.82 -7.275 2.475 -10.776 4.056 c -15.724 7.103 -31.991 12.987 -48.239 18.862 l -18.663 6.75 c -3.73 1.348 -7.595 2.718 -11.565 2.482 c -1.78 -0.105 -3.964 -0.367 -4.965 1.073 c -3.036 4.368 -1.602 10.784 0.404 15.686 c 0.652 1.59 1.753 3.307 3.498 3.488 c 1.229 0.128 2.371 -0.563 3.565 -0.873 c 3.397 -0.884 6.784 1.335 10.28 1.696 c 4.32 0.447 8.33 -1.942 12.408 -3.405 c 6.761 -2.427 14.155 -2.35 21.262 -3.5 c 11.917 -1.927 22.962 -7.3 33.287 -13.42 c 3.932 -2.331 7.91 -4.828 12.427 -5.68 c 5.193 -0.98 10.527 0.318 15.618 1.717 a 368.205 368.205 0 0 1 35.808 11.838 c 6.168 2.397 12.291 4.967 18.709 6.624 a 69.554 69.554 0 0 0 41.93 -2.373 c 4.686 -1.799 9.779 -4.978 10.048 -9.887 c 0.153 -2.8 -2.083 -5.265 -3.577 -7.659 c -0.958 -1.535 -1.917 -3.07 -2.96 -4.552 c -5.05 -7.167 -11.177 -16.606 -20.071 -16.089 Z" /><path fill="#fbbebe" d="M 247 340.813 A 260.711 260.711 0 0 0 260.544 345 c 2.55 -4.16 7.318 -7.055 8.405 -11.81 c 0.068 -0.207 0.068 -0.43 0.001 -0.637 a 1.077 1.077 0 0 0 -0.513 -0.456 a 25.334 25.334 0 0 0 -10.605 -3.089 c -2.94 -0.185 -4.28 2.865 -5.613 5.009 c -0.539 0.868 -4.021 7.202 -5.219 6.796 Z" /><path fill="#2f2e41" d="M 253.022 338.893 c -2.692 -0.56 -5.326 -1.992 -6.7 -4.364 c -0.644 -1.111 -1.329 -2.61 -2.614 -2.526 c -1.193 0.078 -1.741 1.488 -2.01 2.649 c -1.006 4.346 -1.994 8.727 -3.759 12.825 c -1.765 4.1 -4.376 7.948 -8.058 10.485 c -1.689 1.164 -3.572 2.033 -5.223 3.25 c -1.483 1.093 -2.776 2.463 -4.415 3.309 a 25.053 25.053 0 0 1 -3.386 1.25 a 23.026 23.026 0 0 0 -4.849 2.338 a 9.716 9.716 0 0 0 -3.301 3.125 a 4.546 4.546 0 0 0 -0.272 4.374 a 4.78 4.78 0 0 0 3.231 2.193 c 1.327 0.226 2.68 0.26 4.017 0.1 c 5.31 -0.388 10.612 -0.856 15.914 -1.325 a 46.04 46.04 0 0 0 6.67 -0.918 c 1.161 -0.278 2.3 -0.646 3.456 -0.941 a 28.76 28.76 0 0 1 6.063 -0.875 a 5.126 5.126 0 0 1 1.769 0.16 c 1.228 0.398 2.1 1.608 3.368 1.854 a 5.393 5.393 0 0 0 2.398 -0.317 c 3.82 -1.035 7.834 -1.007 11.787 -1.219 c 1.742 -0.093 3.781 -0.42 4.58 -1.965 c 0.997 -1.926 -0.656 -4.08 -1.314 -6.145 a 18.644 18.644 0 0 1 -0.547 -4.03 a 24.506 24.506 0 0 0 -2.923 -9.58 c -1.352 -2.458 -3.197 -5.176 -2.247 -7.814 c 0.322 -0.895 0.963 -1.728 0.9 -2.677 c -0.28 -4.168 -10.094 -2.71 -12.535 -3.216 Z" /><path fill="#9d5f68" d="M 352.154 264.328 c -5.273 -2.246 -9.497 -6.3 -11.855 -11.381 c -0.497 -1.092 -0.905 -2.232 -1.384 -3.334 a 25.379 25.379 0 0 0 -7.085 -9.51 c -0.775 -0.635 -1.684 -1.241 -2.63 -1.075 c -0.908 0.16 -1.623 1.028 -1.935 2.002 a 7.903 7.903 0 0 0 -0.196 3.073 c 0.265 2.42 0.696 4.821 1.29 7.187 l 1.441 6.35 c 0.179 0.976 0.48 1.928 0.898 2.834 a 10.07 10.07 0 0 0 2.42 2.799 a 122.918 122.918 0 0 0 4.015 3.424 a 11.405 11.405 0 0 0 6.963 2.992 c 5.909 1.059 11.918 2.584 16.904 6.311 c -0.055 -0.041 -0.021 -4.26 -0.107 -4.743 c -0.229 -1.277 -0.406 -2.543 -1.267 -3.407 c -1.933 -1.94 -5.118 -2.51 -7.472 -3.522 Z" /><path opacity="0.1" fill="#000" d="M 352.154 264.328 c -5.273 -2.246 -9.497 -6.3 -11.855 -11.381 c -0.497 -1.092 -0.905 -2.232 -1.384 -3.334 a 25.379 25.379 0 0 0 -7.085 -9.51 c -0.775 -0.635 -1.684 -1.241 -2.63 -1.075 c -0.908 0.16 -1.623 1.028 -1.935 2.002 a 7.903 7.903 0 0 0 -0.196 3.073 c 0.265 2.42 0.696 4.821 1.29 7.187 l 1.441 6.35 c 0.179 0.976 0.48 1.928 0.898 2.834 a 10.07 10.07 0 0 0 2.42 2.799 a 122.918 122.918 0 0 0 4.015 3.424 a 11.405 11.405 0 0 0 6.963 2.992 c 5.909 1.059 11.918 2.584 16.904 6.311 c -0.055 -0.041 -0.021 -4.26 -0.107 -4.743 c -0.229 -1.277 -0.406 -2.543 -1.267 -3.407 c -1.933 -1.94 -5.118 -2.51 -7.472 -3.522 Z" /><circle fill="#2f2e41" cx="411" cy="210" r="7" /><path fill="#2f2e41" d="M 406.9 206.147 c -1.957 -0.21 -4.132 -0.366 -5.7 0.793 a 7.554 7.554 0 0 0 -1.952 2.57 c -1.508 2.74 -2.995 5.533 -3.754 8.552 c -0.644 2.561 -0.75 5.24 -1.548 7.76 c -1.479 4.675 -5.268 8.622 -5.701 13.495 c -0.194 2.181 0.183 4.734 -1.461 6.229 a 9.67 9.67 0 0 1 -1.296 0.89 a 9.641 9.641 0 0 0 -2.84 2.824 c -0.615 0.947 -1.089 2.034 -2.015 2.698 c -1.467 1.052 -3.902 0.945 -4.625 2.573 c -0.743 1.672 1.142 3.533 0.706 5.305 c -0.356 1.443 -2.018 2.104 -3.163 3.084 c -1.467 1.257 -2.137 3.152 -2.749 4.957 c -4.882 0.895 -9.925 -0.322 -13.802 -3.33 c 2.014 4.799 2.057 10.095 2.144 15.278 c 0.029 1.68 -0.025 3.568 -1.266 4.739 c 5.742 0.119 11.343 1.624 16.947 2.85 c 2.449 0.535 5.108 1 7.391 -0.013 a 12.003 12.003 0 0 0 3.386 -2.606 c 3.048 -2.992 6.246 -6.255 6.992 -10.405 c 0.418 -2.325 0.013 -4.711 0.124 -7.07 c 0.137 -2.92 1.06 -5.744 1.85 -8.566 a 98.137 98.137 0 0 0 3.24 -17.64 c 0.331 -3.679 3.615 -6.64 5.343 -9.927 c 3.263 -6.206 6.597 -12.67 6.843 -19.638 c 0.083 -2.33 -0.712 -5.146 -3.094 -5.402 Z" /><path opacity="0.1" fill="#000" d="M 406.9 206.147 c -1.957 -0.21 -4.132 -0.366 -5.7 0.793 a 7.554 7.554 0 0 0 -1.952 2.57 c -1.508 2.74 -2.995 5.533 -3.754 8.552 c -0.644 2.561 -0.75 5.24 -1.548 7.76 c -1.479 4.675 -5.268 8.622 -5.701 13.495 c -0.194 2.181 0.183 4.734 -1.461 6.229 a 9.67 9.67 0 0 1 -1.296 0.89 a 9.641 9.641 0 0 0 -2.84 2.824 c -0.615 0.947 -1.089 2.034 -2.015 2.698 c -1.467 1.052 -3.902 0.945 -4.625 2.573 c -0.743 1.672 1.142 3.533 0.706 5.305 c -0.356 1.443 -2.018 2.104 -3.163 3.084 c -1.467 1.257 -2.137 3.152 -2.749 4.957 c -4.882 0.895 -9.925 -0.322 -13.802 -3.33 c 2.014 4.799 2.057 10.095 2.144 15.278 c 0.029 1.68 -0.025 3.568 -1.266 4.739 c 5.742 0.119 11.343 1.624 16.947 2.85 c 2.449 0.535 5.108 1 7.391 -0.013 a 12.003 12.003 0 0 0 3.386 -2.606 c 3.048 -2.992 6.246 -6.255 6.992 -10.405 c 0.418 -2.325 0.013 -4.711 0.124 -7.07 c 0.137 -2.92 1.06 -5.744 1.85 -8.566 a 98.137 98.137 0 0 0 3.24 -17.64 c 0.331 -3.679 3.615 -6.64 5.343 -9.927 c 3.263 -6.206 6.597 -12.67 6.843 -19.638 c 0.083 -2.33 -0.712 -5.146 -3.094 -5.402 Z" /><path fill="#2f2e41" d="M 400.39 315.983 c -6.1 -2.84 -10.563 -8.135 -15.496 -12.666 c -9.416 -8.65 -20.931 -14.775 -30.832 -22.885 c -6.563 -5.376 -12.432 -11.636 -19.643 -16.137 a 49.606 49.606 0 0 0 -21.039 -7.212 a 6.052 6.052 0 0 0 -2.576 0.126 a 6.08 6.08 0 0 0 -2.395 1.853 a 73.379 73.379 0 0 0 -8.48 11.408 c -12.549 20.842 -30.373 38.366 -45.142 57.75 a 2.55 2.55 0 0 0 -0.176 3.5 l 3.004 5.758 c 1.681 3.223 4.374 6.977 7.998 6.337 c 1.656 -0.293 2.976 -1.485 4.195 -2.626 l 13.486 -12.612 l 14.14 -13.223 c 8.284 -7.748 16.71 -15.676 22.111 -25.587 c 4.22 7.162 11.71 11.85 16.847 18.406 c 1.955 2.494 3.55 5.236 5.296 7.876 c 2.796 4.232 5.976 8.204 9.152 12.17 l 16.219 20.253 c 2.211 2.762 4.485 5.58 7.51 7.453 c 3.84 2.38 8.512 3.006 13.034 3.402 c 6.093 0.534 12.21 0.75 18.326 0.649 c 4.663 -0.078 9.473 -0.378 13.657 -2.404 c 4.184 -2.026 7.622 -6.185 7.404 -10.768 c -0.113 -2.384 -1.172 -4.619 -2.338 -6.711 c -5.793 -10.4 -13.364 -19.038 -24.261 -24.11 Z" /><ellipse fill="#2f2e41" cx="415.5" cy="214" rx="5.5" ry="5" /><path fill="#9d5f68" d="M 414.445 210.23 c 1.325 2.357 1.326 5.292 0.597 7.903 c -0.73 2.61 -2.121 4.972 -3.498 7.3 c -1.355 2.29 -2.726 4.6 -4.544 6.533 c 8.388 0.405 16.52 -2.911 23.923 -6.93 c 5.956 -3.233 11.899 -7.224 15.077 -13.266 c -1.859 0.563 -3.907 0.007 -5.553 -1.034 a 20.728 20.728 0 0 1 -4.254 -3.995 l -4.212 -4.775 a 19.04 19.04 0 0 1 -2.59 -3.427 A 9.698 9.698 0 0 1 428.28 193 a 31.472 31.472 0 0 1 -5.572 4.661 c -3.008 1.973 -6.324 3.405 -9.338 5.366 c -1.07 0.696 -3.446 1.815 -2.834 3.223 c 0.596 1.373 3.063 2.47 3.91 3.98 Z" /><path opacity="0.1" fill="#000" d="M 414.445 210.23 c 1.325 2.357 1.326 5.292 0.597 7.903 c -0.73 2.61 -2.121 4.972 -3.498 7.3 c -1.355 2.29 -2.726 4.6 -4.544 6.533 c 8.388 0.405 16.52 -2.911 23.923 -6.93 c 5.956 -3.233 11.899 -7.224 15.077 -13.266 c -1.859 0.563 -3.907 0.007 -5.553 -1.034 a 20.728 20.728 0 0 1 -4.254 -3.995 l -4.212 -4.775 a 19.04 19.04 0 0 1 -2.59 -3.427 A 9.698 9.698 0 0 1 428.28 193 a 31.472 31.472 0 0 1 -5.572 4.661 c -3.008 1.973 -6.324 3.405 -9.338 5.366 c -1.07 0.696 -3.446 1.815 -2.834 3.223 c 0.596 1.373 3.063 2.47 3.91 3.98 Z" /><path fill="#fe5043" d="M 414.614 211.963 c -1.6 2.603 -1.944 5.676 0 8.048 c 0.242 0.295 1.14 2.127 1.529 2.144 c 0.375 -0.03 0.724 -0.2 0.972 -0.476 c 2.068 -1.828 3.584 -4.16 5.401 -6.226 c 1.818 -2.065 4.11 -3.948 6.873 -4.364 c 3.334 -0.502 6.554 1.207 9.471 2.855 c 1.213 0.685 2.47 1.41 3.234 2.554 a 8.16 8.16 0 0 1 1.062 3.49 c 1.008 7.343 0.986 14.778 0.962 22.186 c -0.018 5.354 -0.039 10.747 -1.086 16.004 c -0.541 2.717 -1.355 5.384 -1.74 8.126 a 52.762 52.762 0 0 0 -0.342 7.291 l -0.008 10.195 c -0.07 1.872 0.067 3.746 0.409 5.59 c 0.5 2.234 1.594 4.296 2.324 6.47 a 41.433 41.433 0 0 1 1.54 7.645 l 1.444 10.557 c 0.454 3.324 0.79 6.961 -1.29 9.637 c -0.94 1.21 -2.174 2.179 -3.127 3.38 c -3.57 4.493 -2.424 10.906 -3.913 16.396 c -1.175 4.02 -3.59 7.6 -6.922 10.26 c -2.55 2.095 -5.844 3.744 -9.127 3.154 c -4.433 -0.796 -7.096 -5.265 -8.304 -9.488 c -1.209 -4.222 -1.65 -8.818 -4.268 -12.386 c -2.138 -2.913 -5.45 -4.745 -8.446 -6.824 c -2.995 -2.08 -5.922 -4.76 -6.574 -8.282 c -0.285 -1.538 -0.108 -3.123 -0.277 -4.677 c -0.485 -4.011 -3.192 -7.448 -7.062 -8.967 c -2.269 -0.853 -5.071 -1.158 -6.349 -3.171 c 3.3 -1.798 5.49 -5.12 6.643 -8.622 c 1.154 -3.502 1.39 -7.218 1.616 -10.889 l 0.758 -12.267 c 0.339 -5.482 0.492 -10.915 2.99 -15.842 c 1.115 -2.202 2.504 -4.263 3.666 -6.443 a 71.109 71.109 0 0 0 3.928 -9.455 c 1.81 -5.026 3.62 -10.054 5.233 -15.143 c 0.77 -2.425 1.508 -4.897 2.878 -7.056 c 1.37 -2.16 3.336 -4.938 5.902 -5.404 Z" /><path fill="#2f2e41" d="M 387.349 291.881 l 3.304 0.119 l 0.704 -4.974 c 0.093 -0.996 0.328 -1.972 0.7 -2.9 a 17.91 17.91 0 0 1 1.9 -2.774 c 3.253 -4.576 3.016 -10.653 3.822 -16.213 c 1.075 -7.415 4.185 -14.357 7.262 -21.187 l 6.416 -14.242 a 15.383 15.383 0 0 0 1.774 -7.861 c 0.057 -2.202 0.712 -10.213 0.769 -12.414 c 0.02 -0.815 -1.804 -0.362 -2.174 -1.088 c -0.804 -1.582 -1.905 2.706 -3.408 3.647 c -1.503 0.941 -2.332 2.645 -2.97 4.301 c -1.383 3.588 -2.228 7.36 -3.516 10.983 c -1.289 3.623 -3.091 7.182 -5.99 9.704 c -1.317 1.147 -2.835 2.056 -4.08 3.28 c -3.99 3.932 -4.38 10.14 -4.52 15.744 c -0.084 3.332 -0.73 35.875 0.007 35.875 Z" /><path fill="#2f2e41" d="M 434.32 206.375 c -3.226 1.238 -4.995 4.653 -5.902 7.934 c -0.906 3.281 -1.276 6.778 -3.008 9.722 c -4.05 6.882 -14.378 8.887 -17.236 16.323 c -0.935 2.433 -0.894 5.102 -1.146 7.69 c -0.518 5.329 -2.313 10.476 -2.844 15.803 c -0.41 4.127 -0.056 8.286 0.3 12.418 l 3.608 42.022 c 0.522 6.07 0.508 12.59 -1.08 18.478 c 3.654 0.696 7.453 -0.235 10.844 -1.744 c 3.39 -1.509 6.484 -3.58 9.748 -5.338 c 5.611 -3.021 11.8 -5.163 16.713 -9.188 a 9.567 9.567 0 0 0 2.252 -2.43 c 0.985 -1.66 1.066 -3.67 1.534 -5.537 a 29.895 29.895 0 0 1 1.618 -4.352 a 127.629 127.629 0 0 0 4.695 -12.956 a 70.174 70.174 0 0 0 2.16 -8.897 c 0.393 -2.396 0.606 -4.816 0.818 -7.233 a 42.37 42.37 0 0 1 2.292 -11.107 a 87.122 87.122 0 0 0 5.271 -26.618 a 13.139 13.139 0 0 0 -0.271 -3.918 c -0.428 -1.595 -1.392 -2.99 -2.184 -4.445 c -1.5 -2.758 -2.4 -5.793 -3.816 -8.593 c -3.199 -6.329 -8.848 -11.127 -14.765 -15.148 c -2.907 -1.975 -6.31 -4.15 -9.601 -2.886 Z" /><path fill="#9d5f68" d="M 359.294 273.155 c -2.5 -1.429 -5 -2.967 -6.88 -5.13 c -0.902 -1.037 -1.646 -2.2 -2.563 -3.224 c -2.229 -2.49 -5.388 -4.033 -8.654 -4.84 c -3.265 -0.807 -6.662 -0.93 -10.028 -0.958 c -2.252 -0.018 -4.56 0.013 -6.668 0.795 c -2.109 0.781 -4.01 2.466 -4.418 4.651 c -0.49 2.63 1.26 5.193 3.363 6.88 a 16.328 16.328 0 0 0 6.722 3.203 c 2.01 0.345 4.038 0.579 6.076 0.699 c 11.961 1.229 22.633 7.619 33.115 13.437 A 440.758 440.758 0 0 0 397.514 303 c 0.38 -2.811 0.537 -5.647 0.472 -8.482 c -0.05 -2.117 -0.155 -5.345 -2.193 -6.588 c -2.374 -1.448 -6.283 -1.78 -8.962 -2.642 a 145.409 145.409 0 0 1 -18.017 -7.153 a 144.441 144.441 0 0 1 -9.52 -4.98 Z" /><circle fill="#9d5f68" cx="411" cy="187" r="21" /><path fill="#2f2e41" d="M 441.057 229.663 c -1.923 2.17 -2.886 4.966 -4.178 7.54 c -2.659 5.3 -6.829 9.847 -8.917 15.383 c -2.203 5.84 -2.13 12.786 -6.448 17.372 c -0.75 0.798 -1.657 1.568 -1.874 2.628 c -0.129 0.63 0.005 1.304 -0.22 1.908 c -0.618 1.666 -3.437 1.75 -3.963 3.447 c -0.154 0.496 -0.067 1.046 -0.258 1.53 c -0.432 1.097 -1.929 1.264 -2.93 1.922 c -2.09 1.372 -1.668 4.562 -3.16 6.54 c -1.18 1.564 -3.404 2.089 -5.38 1.823 c -1.975 -0.265 -3.785 -1.18 -5.584 -2.018 a 5.203 5.203 0 0 0 -2.009 -0.61 a 4.308 4.308 0 0 0 -2.319 0.766 c -3.977 2.448 -5.844 7.295 -5.817 11.875 c 0.028 4.58 1.654 8.991 3.319 13.274 c 0.227 0.723 0.6 1.395 1.097 1.978 c 1.319 1.35 3.615 1.131 5.367 0.38 c 1.75 -0.75 3.342 -1.931 5.225 -2.261 c 3.332 -0.585 6.588 1.631 9.968 1.449 c 2.476 -0.134 4.668 -1.527 6.725 -2.875 c 3.284 -2.152 6.628 -4.357 9.043 -7.41 c 1.478 -1.87 2.561 -4.001 3.85 -6 a 69.528 69.528 0 0 1 5.438 -7.028 l 12.415 -14.708 a 23.514 23.514 0 0 0 5.947 -11.181 c 1.18 -3.92 2.369 -7.885 2.573 -11.965 c 0.168 -3.358 -0.335 -6.711 -0.902 -10.028 c -0.557 -3.265 -1.191 -6.566 -2.673 -9.545 c -2.697 -5.422 -9.264 -9.908 -14.335 -4.186 Z" /><ellipse fill="#2f2e41" cx="447" cy="141" rx="27" ry="26" /><path fill="#2f2e41" d="M 471.856 164.464 a 27.003 27.003 0 0 1 -24.604 3.711 c -8.315 -2.84 -14.745 -9.552 -17.252 -18.009 c 1.275 10.183 8.14 18.781 17.758 22.24 a 27.014 27.014 0 0 0 27.773 -5.865 c 7.418 -7.057 10.256 -17.705 7.342 -27.541 c 1.236 9.873 -2.988 19.637 -11.017 25.464 Z" /><ellipse fill="#2f2e41" cx="425" cy="180.5" rx="20" ry="19.5" /><ellipse fill="#2f2e41" cx="408.5" cy="173.5" rx="17.5" ry="13.5" /><ellipse fill="#9c6067" transform="rotate(-39.118 413.388 194.377)" cx="413.388" cy="194.377" rx="2.728" ry="4.068" /><path fill="#ec7064" d="M 394 364.96 c 0 9.665 -5.82 13.04 -13 13.04 a 23.201 23.201 0 0 1 -1.486 -0.05 c -6.48 -0.453 -11.514 -4.001 -11.514 -12.99 c 0 -9.3 12.04 -21.038 12.946 -21.908 l 0.001 -0.001 L 381 343 s 13 12.296 13 21.96 Z" /></g></svg>