<svg xmlns="http://www.w3.org/2000/svg" width="694" height="543"><defs><filter id="prefix__a" x="-3.4%" y="-17.8%" width="106.8%" height="135.6%" filterUnits="objectBoundingBox"><feOffset result="shadowOffsetOuter1" in="SourceAlpha" dy="1" /><feGaussianBlur result="shadowBlurOuter1" in="shadowOffsetOuter1" stdDeviation="1.5" /><feColorMatrix result="shadowMatrixOuter1" in="shadowBlurOuter1" values="0 0 0 0 0 0 0 0 0 0 0 0 0 0 0 0 0 0 0.5 0" /><feMerge><feMergeNode in="shadowMatrixOuter1" /><feMergeNode in="SourceGraphic" /></feMerge></filter><filter id="prefix__b" x="-3.4%" y="-17.8%" width="106.8%" height="135.6%" filterUnits="objectBoundingBox"><feOffset result="shadowOffsetOuter1" in="SourceAlpha" dy="1" /><feGaussianBlur result="shadowBlurOuter1" in="shadowOffsetOuter1" stdDeviation="1.5" /><feColorMatrix result="shadowMatrixOuter1" in="shadowBlurOuter1" values="0 0 0 0 0 0 0 0 0 0 0 0 0 0 0 0 0 0 0.5 0" /><feMerge><feMergeNode in="shadowMatrixOuter1" /><feMergeNode in="SourceGraphic" /></feMerge></filter></defs><g fill="none" fill-rule="evenodd" transform="translate(2 2)"><path fill="#3f3d56" fill-rule="nonzero" d="M 40.123 470.815 c 7.028 26.51 31.104 42.927 31.104 42.927 s 12.68 -26.562 5.65 -53.072 c -7.028 -26.51 -31.104 -42.928 -31.104 -42.928 s -12.68 26.563 -5.65 53.073 Z" /><path fill="#fe5043" fill-rule="nonzero" d="M 50 464.698 c 19.605 19.33 22 49.044 22 49.044 s -29.393 -1.625 -49 -20.955 c -19.605 -19.33 -22 -49.045 -22 -49.045 s 29.393 1.626 49 20.956 Z" /><path fill="#2f2e41" fill-rule="nonzero" d="M 0 537.742 h 692 v 3 H 0 Z" /><path fill="#3f3d56" fill-rule="nonzero" d="M 82 538.742 H 54 v -28 h 28 v 28 Z m -25.846 -2.153 h 23.692 v -23.693 H 56.154 v 23.693 Z M 1 44.742 h 235 v 236 H 1 Z" /><path fill="#fe5043" fill-rule="nonzero" d="M 236 102.421 v 5.321 a 24.094 24.094 0 0 1 -8.305 -9.37 c -3.1 -6.313 -3.003 -13.59 -2.904 -20.628 c 0.112 -8.366 0.224 -16.256 -5.107 -21.396 c -5.864 -5.642 -15.25 -4.846 -24.327 -4.078 c -1.066 0.084 -2.132 0.182 -3.185 0.265 c -9.105 0.685 -19.248 -1.606 -24.172 -7.793 h 6.145 c 4.503 3.017 11.392 4.078 17.719 3.604 c 1.024 -0.07 2.076 -0.168 3.128 -0.252 c 9.554 -0.81 20.385 -1.732 27.61 5.237 c 6.65 6.397 6.524 15.586 6.397 24.469 c -0.098 6.55 -0.182 13.31 2.484 18.728 A 19.163 19.163 0 0 0 236 102.42 Z M 237 141.372 v 6.37 a 27.025 27.025 0 0 0 -3.463 -3.756 c -7.323 -6.5 -17.839 -7.928 -28 -9.327 c -1.32 -0.172 -2.611 -0.358 -3.903 -0.543 c -16.476 -2.386 -26.694 -8.085 -31.221 -17.384 c -3.137 -6.456 -3.037 -13.898 -2.938 -21.097 c 0.113 -8.556 0.227 -16.626 -5.166 -21.882 c -5.932 -5.771 -15.426 -4.957 -24.608 -4.171 c -1.079 0.086 -2.157 0.185 -3.222 0.271 c -11.836 0.9 -25.417 -3.228 -27.276 -14.383 c -0.639 -3.829 0.312 -7.342 1.717 -10.728 h 4.655 c -1.561 3.4 -2.725 6.685 -2.171 10.013 c 1.405 8.513 12.786 11.57 22.763 10.813 c 1.036 -0.071 2.1 -0.171 3.165 -0.257 c 9.664 -0.828 20.62 -1.771 27.929 5.356 c 6.727 6.542 6.6 15.941 6.471 25.026 c -0.099 6.699 -0.184 13.612 2.512 19.154 c 3.86 7.942 13.014 12.855 28 15.026 c 1.278 0.186 2.57 0.372 3.86 0.543 c 10.786 1.472 21.955 3 30.257 10.356 c 0.213 0.186 0.426 0.386 0.639 0.6 Z M 237 256.742 c -5.144 -5.464 -9.448 -12.962 -12.74 -22.34 a 335.289 335.289 0 0 1 -2.037 -6.061 c -3.691 -11.141 -7.51 -22.653 -16.602 -30.01 c -9.718 -7.854 -23.64 -9.59 -37.106 -11.269 a 565.996 565.996 0 0 1 -5.159 -0.654 c -21.831 -2.889 -35.354 -9.761 -41.353 -21.002 c -4.161 -7.812 -4.033 -16.805 -3.905 -25.499 c 0.157 -10.33 0.314 -20.092 -6.84 -26.438 c -7.852 -6.972 -20.434 -5.99 -32.59 -5.037 c -1.439 0.114 -2.864 0.228 -4.26 0.327 c -15.69 1.082 -33.687 -3.898 -36.138 -17.373 c -1.212 -6.603 1.88 -12.451 4.859 -18.114 c 1.71 -3.244 3.334 -6.332 4.16 -9.505 c 1.74 -6.531 -0.412 -13.888 -5.186 -19.025 h 6.982 a 25.04 25.04 0 0 1 3.691 20.248 c -0.983 3.714 -2.807 7.186 -4.574 10.544 c -2.722 5.151 -5.273 10.018 -4.375 14.998 c 1.881 10.273 16.943 13.973 30.153 13.062 c 1.382 -0.1 2.793 -0.213 4.204 -0.313 c 12.796 -1.01 27.303 -2.134 36.993 6.474 c 8.906 7.898 8.735 19.252 8.564 30.223 c -0.114 8.096 -0.242 16.449 3.32 23.15 c 5.116 9.577 17.257 15.525 37.107 18.157 c 1.682 0.228 3.392 0.441 5.102 0.655 c 14.307 1.778 29.084 3.614 40.07 12.507 c 10.303 8.339 14.365 20.561 18.27 32.386 c 0.669 2.02 1.339 4.012 2.023 5.99 A 67.4 67.4 0 0 0 237 247.977 v 8.765 Z M 1 139.789 c 6.477 7.806 20.212 10.69 32.526 9.842 c 1.392 -0.099 2.812 -0.212 4.247 -0.325 c 12.115 -0.948 24.657 -1.923 32.483 5.006 c 7.13 6.307 6.974 16.007 6.818 26.274 c -0.128 8.64 -0.256 17.577 3.892 25.34 c 5.98 11.172 19.458 18.002 41.218 20.873 c 1.705 0.226 3.423 0.438 5.142 0.65 c 13.422 1.669 27.299 3.394 36.986 11.2 c 9.061 7.31 12.868 18.75 16.547 29.823 a 332.885 332.885 0 0 0 2.03 6.024 a 89.951 89.951 0 0 0 2.032 5.246 H 191 a 79.634 79.634 0 0 1 -2.755 -6.816 a 486.541 486.541 0 0 1 -2.017 -5.953 c -3.892 -11.751 -7.94 -23.898 -18.21 -32.185 c -10.95 -8.838 -25.68 -10.662 -39.94 -12.43 c -1.704 -0.212 -3.408 -0.424 -5.084 -0.65 c -19.786 -2.616 -31.887 -8.527 -36.986 -18.044 c -3.551 -6.66 -3.423 -14.961 -3.31 -23.007 c 0.17 -10.903 0.341 -22.188 -8.536 -30.036 c -9.658 -8.555 -24.117 -7.438 -36.872 -6.434 c -1.406 0.099 -2.812 0.212 -4.19 0.311 c -13.167 0.905 -28.18 -2.772 -30.055 -12.981 c -0.894 -4.95 1.648 -9.786 4.36 -14.905 c 1.762 -3.337 3.58 -6.788 4.56 -10.478 C 14.635 96.037 10.133 84.85 1 78.742 v 6.93 c 4.985 5.119 7.258 12.6 5.497 19.245 c -0.824 3.154 -2.443 6.222 -4.148 9.447 c -0.454 0.862 -0.909 1.71 -1.349 2.587 v 22.838 Z M 105 280.742 h -5.878 c -0.311 -0.923 -0.609 -1.86 -0.92 -2.798 c -3.669 -11.123 -7.464 -22.615 -16.5 -29.96 c -9.66 -7.841 -23.497 -9.574 -36.881 -11.25 a 560.142 560.142 0 0 1 -5.127 -0.654 C 20.545 233.537 7.812 227.883 1 218.877 v -14.135 a 26.866 26.866 0 0 0 2.62 8.098 c 5.085 9.56 17.152 15.498 36.881 18.126 c 1.671 0.227 3.37 0.44 5.07 0.653 c 14.22 1.776 28.907 3.609 39.827 12.487 c 10.24 8.325 14.277 20.527 18.157 32.332 c 0.482 1.45 0.95 2.884 1.445 4.304 Z" /><path fill="#3f3d56" fill-rule="nonzero" d="M 452 44.742 h 235 v 236 H 452 Z" /><path fill="#fe5043" fill-rule="nonzero" d="M 566.306 44.742 v 97.278 H 451 v 5.722 h 121 v -103 Z M 677.21 279.742 L 687 265.82 v -9.903 l -16.758 23.825 h 6.968 Z m -39.757 -102 L 585 252.34 l 38.973 27.402 h 9.904 l -40.94 -28.784 l 45.899 -65.278 L 687 219.55 v -6.968 l -49.547 -34.84 Z M 550.5 169.742 l -29.5 29.5 l 29.5 29.5 l 29.5 -29.5 l -29.5 -29.5 Z m -21.642 29.5 l 21.642 -21.641 l 21.642 21.641 l -21.642 21.642 l -21.642 -21.642 Z" /><circle fill="#ffb8b8" fill-rule="nonzero" cx="329" cy="130.742" r="20" /><path fill="#9d5f68" fill-rule="nonzero" d="M 318 140.09 s 5.484 27.468 3.29 32.75 c -2.193 5.282 30.71 -2.113 30.71 -2.113 s -6.58 -27.467 -5.484 -33.806 c 1.097 -6.338 -28.516 3.17 -28.516 3.17 Z M 283 235.742 l 2.1 28.667 l 10.422 45.02 l 3.228 12.313 l 5.25 -19.11 l -5.25 -43.532 l -1.783 -19.598 Z M 395 231.742 v 29.816 s -3.176 38.334 -9.53 47.917 c -6.352 9.584 -8.47 -38.334 -8.47 -38.334 l 4.978 -35.14 L 395 231.743 Z" /><path fill="#2f2e41" fill-rule="nonzero" d="M 298.726 326.341 s -5.343 6.398 -1.069 71.443 c 4.274 65.046 -2.137 111.964 11.753 111.964 c 0 0 -4.274 13.862 7.48 14.928 c 11.753 1.066 17.095 2.133 18.163 -1.066 c 1.069 -3.2 3.206 -18.128 0 -18.128 c 0 0 0 4.266 2.137 -12.795 s 2.137 -98.101 7.48 -108.765 l 17.095 39.454 s 0 18.127 3.205 26.658 c 3.206 8.53 8.548 57.581 8.548 57.581 l -1.068 7.464 s 25.643 4.266 26.711 0 c 1.069 -4.265 1.069 -10.663 0 -12.796 c -1.068 -2.132 -1.068 -2.132 1.069 -6.397 c 2.137 -4.266 2.137 -7.465 1.068 -10.664 c -1.068 -3.199 -1.068 -72.51 -1.068 -72.51 s -2.137 -84.238 -14.959 -88.503 c -12.821 -4.266 -86.545 2.132 -86.545 2.132 Z" /><path fill="#2f2e41" fill-rule="nonzero" d="M 314.181 515.742 l -8.371 14.937 s -13.08 -4.801 -10.464 7.468 c 22.497 1.6 38.193 -0.533 38.193 -0.533 s 5.232 2.134 6.279 -1.067 c 1.046 -3.2 -2.616 -14.403 -5.756 -14.403 c -3.139 0 -19.881 -6.402 -19.881 -6.402 Z M 376.071 510.78 s -8.561 19.542 -5.35 20.628 c 3.21 1.086 32.106 5.428 34.246 6.514 c 2.14 1.085 12.842 2.171 13.913 -4.343 c 1.07 -6.514 -5.351 -8.685 -5.351 -8.685 s -11.773 -2.171 -14.983 -13.028 c -3.21 -10.856 -22.475 -1.086 -22.475 -1.086 Z" /><path fill="#8985a8" fill-rule="nonzero" d="M 352.48 168.116 s -28.89 -5.34 -35.31 0 c -6.42 5.34 -33.17 16.021 -33.17 21.361 s 13.91 57.677 13.91 57.677 s -7.49 79.037 0 81.174 c 7.49 2.136 20.33 -4.273 35.31 3.204 c 14.98 7.476 57.78 -6.409 57.78 -6.409 s -16.05 -68.357 -11.77 -81.174 c 4.28 -12.817 7.49 -56.608 7.49 -56.608 s -18.19 -19.225 -34.24 -19.225 Z" /><path fill="#8985a8" fill-rule="nonzero" d="M 292.599 186.742 l -7.877 2.14 s -16.88 50.299 -10.128 52.44 c 6.752 2.14 25.882 6.42 28.132 6.42 c 2.251 0 -10.127 -61 -10.127 -61 Z M 370 181.742 l 17.089 6.3 s 22.43 40.95 17.089 46.2 c -5.34 5.25 -28.838 10.5 -28.838 10.5 l -5.34 -63 Z" /><path fill="#2f2e41" fill-rule="nonzero" d="M 328.036 105.926 a 11.381 11.381 0 0 0 -5.057 0.225 a 13.183 13.183 0 0 0 -3.595 2.367 a 42.055 42.055 0 0 1 -6.145 4.09 c -1.725 0.94 -3.578 1.81 -4.782 3.366 c -0.569 0.786 -1.023 1.65 -1.35 2.565 a 30.865 30.865 0 0 0 -1.61 16.732 c 0.116 0.798 0.355 1.573 0.71 2.297 c 1.106 2.047 3.549 2.853 5.606 3.926 c 3.907 2.037 6.869 5.466 10.073 8.497 a 19.702 19.702 0 0 0 3.98 3.08 c 4.572 2.503 10.16 1.687 15.291 0.802 a 2.75 2.75 0 0 0 1.954 -0.822 a 2.774 2.774 0 0 0 0.796 -1.972 l 4.05 -18.296 a 29.97 29.97 0 0 0 1.04 -8.322 c -0.284 -4.44 -2.678 -10.593 -5.924 -13.748 c -3.781 -3.676 -10.093 -4.261 -15.037 -4.787 Z" /><circle fill="#fe5043" fill-rule="nonzero" cx="190.5" cy="514.242" r="8.5" /><path fill="#2f2e41" fill-rule="nonzero" d="M 190.5 537.742 c -13.531 0 -24.5 -10.969 -24.5 -24.5 c 0 -13.53 10.969 -24.5 24.5 -24.5 s 24.5 10.97 24.5 24.5 c -0.015 13.525 -10.975 24.485 -24.5 24.5 Z m 0 -47.115 a 22.615 22.615 0 1 0 22.615 22.615 c -0.014 -12.484 -10.13 -22.6 -22.615 -22.615 Z" /><circle fill="#fe5043" fill-rule="nonzero" cx="601.5" cy="515.242" r="8.5" /><path fill="#2f2e41" fill-rule="nonzero" d="M 600.5 538.742 a 24.5 24.5 0 1 1 24.5 -24.5 c -0.015 13.525 -10.975 24.485 -24.5 24.5 Z m 0 -47.114 c -12.49 0 -22.615 10.125 -22.615 22.615 c 0 12.49 10.125 22.615 22.615 22.615 c 12.49 0 22.615 -10.125 22.615 -22.615 c -0.014 -12.484 -10.13 -22.6 -22.615 -22.615 Z" /><circle fill="#fe5043" fill-rule="nonzero" cx="601.5" cy="469.242" r="8.5" /><path fill="#2f2e41" fill-rule="nonzero" d="M 600.5 492.742 a 24.5 24.5 0 1 1 24.5 -24.5 c -0.015 13.525 -10.975 24.485 -24.5 24.5 Z m 0 -47.114 c -12.49 0 -22.615 10.125 -22.615 22.615 c 0 12.49 10.125 22.615 22.615 22.615 c 12.49 0 22.615 -10.125 22.615 -22.615 c -0.014 -12.484 -10.13 -22.6 -22.615 -22.615 Z" /><g filter="url(#prefix__a)" transform="translate(1)"><path fill="#fe5043" d="M 0 0 h 235 v 45 H 0 Z" /><text letter-spacing="0.32px" font-family="Roboto-Regular,Roboto" font-size="22px" fill="#fff"><tspan x="28" y="30">Non-profile Flow</tspan></text></g><g filter="url(#prefix__b)" transform="translate(452)"><path fill="#fe5043" d="M 0 0 h 235 v 45 H 0 Z" /><text letter-spacing="0.32px" font-family="Roboto-Regular,Roboto" font-size="22px" fill="#fff"><tspan x="15" y="30">Small Business Flow</tspan></text></g></g></svg>